<svg width="70" height="70" viewBox="0 0 70 70" fill="none" xmlns="http://www.w3.org/2000/svg">
<rect width="70" height="70" fill="white"/>
<path opacity="0.35" d="M43.3439 49.4507C44.7581 48.6351 46.3873 48.5663 47.7974 49.1086C48.9739 49.5613 50.3193 49.1858 51.1182 48.2117C52.5429 46.4741 53.6923 44.5029 54.4996 42.3606C54.9606 41.1361 54.5246 39.7907 53.5254 38.9438C52.4011 37.9967 51.6877 36.5866 51.6877 34.9992C51.6877 33.4118 52.4011 32.0017 53.5233 31.0505C54.5225 30.2036 54.9606 28.8603 54.4975 27.6337C53.6902 25.4935 52.5429 23.5202 51.1161 21.7826C50.3172 20.8085 48.9718 20.433 47.7953 20.8856C46.3873 21.4322 44.7581 21.3633 43.3439 20.5477C41.9254 19.7279 41.0493 18.3449 40.8199 16.8451C40.6321 15.6186 39.6601 14.6382 38.4356 14.4296C37.3175 14.2398 36.1703 14.1396 35 14.1396C33.8298 14.1396 32.6825 14.2398 31.5645 14.4296C30.34 14.6382 29.37 15.6186 29.1802 16.8451C28.9508 18.3449 28.0747 19.7279 26.6562 20.5477C25.2419 21.3633 23.6128 21.4322 22.2027 20.8877C21.0262 20.4351 19.6808 20.8105 18.8818 21.7847C17.4571 23.5223 16.3098 25.4935 15.5026 27.6358C15.0395 28.8603 15.4776 30.2057 16.4767 31.0505C17.599 32.0017 18.3124 33.4118 18.3124 34.9992C18.3124 36.5866 17.599 37.9967 16.4767 38.9479C15.4776 39.7948 15.0395 41.1382 15.5026 42.3647C16.3098 44.5049 17.4571 46.4783 18.8839 48.2159C19.6828 49.19 21.0283 49.5655 22.2048 49.1128C23.6128 48.5663 25.2419 48.6351 26.6562 49.4507C28.0747 50.2705 28.9508 51.6535 29.1802 53.1533C29.3679 54.3799 30.34 55.3603 31.5645 55.5689C32.6825 55.7587 33.8298 55.8588 35 55.8588C36.1703 55.8588 37.3175 55.7587 38.4356 55.5689C39.6601 55.3624 40.6321 54.3819 40.8199 53.1533C41.0493 51.6535 41.9254 50.2705 43.3439 49.4507Z" fill="#4A3AFF"/>
<path d="M34.9996 26.6553C30.3917 26.6553 26.6558 30.3912 26.6558 34.9991C26.6558 39.607 30.3917 43.3429 34.9996 43.3429C39.6075 43.3429 43.3434 39.607 43.3434 34.9991C43.3434 30.3912 39.6075 26.6553 34.9996 26.6553Z" fill="#4A3AFF"/>
</svg>
