<svg width="25" height="28" viewBox="0 0 25 28" fill="none" xmlns="http://www.w3.org/2000/svg">
<path opacity="0.35" d="M23 8C23 6.343 21.657 5 20 5H6C4.343 5 3 6.343 3 8V16C3 17.657 4.343 19 6 19H14H20C21.657 19 23 17.657 23 16V8Z" fill="#4A3AFF"/>
<path d="M22.5 19C22.324 19 3.607 19 3.5 19C2.672 19 2 19.672 2 20.5C2 21.328 2.672 22 3.5 22C3.626 22 22.374 22 22.5 22C23.328 22 24 21.328 24 20.5C24 19.672 23.328 19 22.5 19Z" fill="#4A3AFF"/>
<path d="M19 11H7C6.447 11 6 10.552 6 10C6 9.448 6.447 9 7 9H19C19.553 9 20 9.448 20 10C20 10.552 19.553 11 19 11Z" fill="#4A3AFF"/>
<path d="M17 15H7C6.447 15 6 14.552 6 14C6 13.448 6.447 13 7 13H17C17.553 13 18 13.448 18 14C18 14.552 17.553 15 17 15Z" fill="#4A3AFF"/>
</svg>
