<svg width="70" height="70" viewBox="0 0 70 70" fill="none" xmlns="http://www.w3.org/2000/svg">
<rect width="70" height="70" fill="white"/>
<path opacity="0.35" d="M34.9998 15.8696C24.4342 15.8696 15.8696 24.4342 15.8696 34.9998C15.8696 45.5654 24.4342 54.13 34.9998 54.13C45.5654 54.13 54.13 45.5654 54.13 34.9998C54.13 24.4342 45.5654 15.8696 34.9998 15.8696ZM34.9998 40.7389C31.83 40.7389 29.2608 38.1697 29.2608 34.9998C29.2608 31.83 31.83 29.2608 34.9998 29.2608C38.1697 29.2608 40.7389 31.83 40.7389 34.9998C40.7389 38.1697 38.1697 40.7389 34.9998 40.7389Z" fill="#4A3AFF"/>
<path d="M37.1478 15.9876C36.0077 15.8614 34.9995 16.7433 34.9995 17.8911C34.9995 20.5731 34.9995 25.4169 34.9995 29.2678C38.156 29.264 40.7347 31.8427 40.7386 34.9992H52.0981C53.2459 34.9992 54.1393 33.9911 54.0111 32.8509C53.0221 24.0013 45.9975 16.9767 37.1478 15.9876Z" fill="#4A3AFF"/>
</svg>
