<svg width="25" height="28" viewBox="0 0 25 28" fill="none" xmlns="http://www.w3.org/2000/svg">
<path opacity="0.35" d="M21.25 4H3.75C1.67893 4 0 5.67893 0 7.75V20.25C0 22.3211 1.67893 24 3.75 24H21.25C23.3211 24 25 22.3211 25 20.25V7.75C25 5.67893 23.3211 4 21.25 4Z" fill="#4A3AFF"/>
<path d="M16.8938 12.9285L10.6438 9.17851C10.4541 9.06457 10.2376 9.00301 10.0164 9.00011C9.79515 8.99721 9.57712 9.05308 9.38455 9.16201C9.19198 9.27094 9.03177 9.42904 8.92029 9.62014C8.80881 9.81125 8.75004 10.0285 8.75 10.2498V17.7498C8.74982 17.9711 8.80842 18.1885 8.91982 18.3798C9.03121 18.5711 9.1914 18.7294 9.38401 18.8385C9.57661 18.9475 9.79473 19.0035 10.0161 19.0007C10.2374 18.9978 10.454 18.9363 10.6438 18.8223L16.8938 15.0723C17.0789 14.9612 17.232 14.8041 17.3384 14.6163C17.4447 14.4284 17.5006 14.2162 17.5006 14.0004C17.5006 13.7845 17.4447 13.5723 17.3384 13.3845C17.232 13.1967 17.0789 13.0396 16.8938 12.9285Z" fill="#4A3AFF"/>
</svg>
