<svg width="70" height="70" viewBox="0 0 70 70" fill="none" xmlns="http://www.w3.org/2000/svg">
<rect width="70" height="70" fill="white"/>
<path opacity="0.35" d="M34.9998 20.0579C34.9998 17.3065 32.7704 15.0771 30.019 15.0771C27.5784 15.0771 25.5562 16.8364 25.1299 19.1534C21.7111 19.6017 19.0613 22.4945 19.0613 26.0349C19.0613 26.3636 19.1131 26.6784 19.1589 26.9952C16.6944 28.8102 15.0767 31.707 15.0767 35.0003C15.0767 38.2936 16.6944 41.1904 19.1589 43.0054C19.1131 43.3222 19.0613 43.637 19.0613 43.9657C19.0613 47.506 21.7111 50.3989 25.1299 50.8472C25.5562 53.1642 27.5784 54.9234 30.019 54.9234C32.7704 54.9234 34.9998 52.694 34.9998 49.9426C34.9998 49.6478 34.9998 20.3648 34.9998 20.0579Z" fill="#4A3AFF"/>
<path opacity="0.35" d="M35 20.0579C35 17.3065 37.2294 15.0771 39.9808 15.0771C42.4214 15.0771 44.4436 16.8364 44.8699 19.1534C48.2887 19.6017 50.9385 22.4945 50.9385 26.0349C50.9385 26.3636 50.8867 26.6784 50.8409 26.9952C53.3054 28.8102 54.9231 31.707 54.9231 35.0003C54.9231 38.2936 53.3054 41.1904 50.8409 43.0054C50.8867 43.3222 50.9385 43.637 50.9385 43.9657C50.9385 47.506 48.2887 50.3989 44.8699 50.8472C44.4436 53.1642 42.4214 54.9234 39.9808 54.9234C37.2294 54.9234 35 52.694 35 49.9426C35 49.6478 35 20.3648 35 20.0579Z" fill="#4A3AFF"/>
<path d="M31.0152 27.0315C31.0152 24.83 29.2321 23.0469 27.0305 23.0469C24.829 23.0469 23.0459 24.83 23.0459 27.0315C23.0459 28.5018 23.8528 29.7729 25.0382 30.4643V31.0161H15.9334C15.3755 32.2314 15.0767 33.5862 15.0767 35.0008H27.0305C28.1263 35.0008 29.0229 34.1042 29.0229 33.0084V30.4643C30.2083 29.7729 31.0152 28.5018 31.0152 27.0315Z" fill="#4A3AFF"/>
<path d="M44.9616 39.5368C46.147 40.2261 46.9539 41.4972 46.9539 42.9695C46.9539 45.1711 45.1708 46.9542 42.9693 46.9542C40.7677 46.9542 38.9846 45.1711 38.9846 42.9695C38.9846 41.4992 39.7915 40.2281 40.9769 39.5368V36.9926C40.9769 35.8968 41.8735 35.0003 42.9693 35.0003H54.9231C54.9231 32.745 54.1521 30.6869 52.883 29.0233H46.402C45.7127 30.2088 44.4416 31.0157 42.9693 31.0157C40.7677 31.0157 38.9846 29.2325 38.9846 27.031C38.9846 24.8295 40.7677 23.0464 42.9693 23.0464C44.4396 23.0464 45.7107 23.8533 46.402 25.0387H50.8469C50.4026 21.9666 47.962 19.5579 44.8719 19.1534C44.4436 16.8364 42.4214 15.0771 39.9808 15.0771C37.2294 15.0771 35 17.3065 35 20.0579C35 20.2093 35 49.4266 35 49.9426C35 52.694 37.2294 54.9234 39.9808 54.9234C42.4214 54.9234 44.4436 53.1642 44.8699 50.8472C48.2887 50.3989 50.9385 47.506 50.9385 43.9657C50.9385 43.637 50.8867 43.3222 50.8409 43.0054C52.2395 41.9754 53.3512 40.5887 54.0625 38.9849H44.9616V39.5368Z" fill="#4A3AFF"/>
<path d="M27.0307 38.9849C25.5604 38.9849 24.2893 39.7918 23.598 40.9772H17.1289C17.6868 41.7542 18.3841 42.4316 19.1611 43.0093C19.1212 43.3281 19.0615 43.627 19.0615 43.9656C19.0615 44.3043 19.0814 44.643 19.1411 44.9618H23.598C24.2893 46.1472 25.5604 46.9541 27.0307 46.9541C29.2322 46.9541 31.0153 45.171 31.0153 42.9695C31.0153 40.768 29.2322 38.9849 27.0307 38.9849Z" fill="#4A3AFF"/>
</svg>
