<svg width="26" height="28" viewBox="0 0 26 28" fill="none" xmlns="http://www.w3.org/2000/svg">
<g clip-path="url(#clip0)">
<path opacity="0.35" d="M2 7.00068V23.8003C2 26.12 3.84663 28.0002 6.125 28.0002H19.875C22.1534 28.0002 24 26.12 24 23.8003V7.00068C24 4.68094 22.1534 2.80078 19.875 2.80078H6.125C3.84663 2.80078 2 4.68094 2 7.00068Z" fill="#4A3AFF"/>
<path d="M18.5 11.1993H7.5C6.73963 11.1993 6.125 10.5722 6.125 9.79938C6.125 9.0266 6.73963 8.39941 7.5 8.39941H18.5C19.2604 8.39941 19.875 9.0266 19.875 9.79938C19.875 10.5722 19.2604 11.1993 18.5 11.1993Z" fill="#4A3AFF"/>
<path d="M13 16.7999H7.5C6.73963 16.7999 6.125 16.1727 6.125 15.4C6.125 14.6272 6.73963 14 7.5 14H13C13.7604 14 14.375 14.6272 14.375 15.4C14.375 16.1727 13.7604 16.7999 13 16.7999Z" fill="#4A3AFF"/>
<path d="M18.5 22.4005H7.5C6.73963 22.4005 6.125 21.7733 6.125 21.0006C6.125 20.2278 6.73963 19.6006 7.5 19.6006H18.5C19.2604 19.6006 19.875 20.2278 19.875 21.0006C19.875 21.7733 19.2604 22.4005 18.5 22.4005Z" fill="#4A3AFF"/>
<path d="M10.25 2.79994C10.25 2.58434 10.25 2.37015 10.25 2.09995C10.25 0.940778 9.326 0 8.1875 0C7.049 0 6.125 0.940778 6.125 2.09995C6.125 2.37015 6.125 2.58434 6.125 2.79994H10.25Z" fill="#4A3AFF"/>
<path d="M19.875 2.79994C19.875 2.58434 19.875 2.37015 19.875 2.09995C19.875 0.940778 18.951 0 17.8125 0C16.674 0 15.75 0.940778 15.75 2.09995C15.75 2.37015 15.75 2.58434 15.75 2.79994H19.875Z" fill="#4A3AFF"/>
</g>
<defs>
<clipPath id="clip0">
<rect width="26" height="28" fill="white"/>
</clipPath>
</defs>
</svg>
