<svg width="70" height="70" viewBox="0 0 70 70" fill="none" xmlns="http://www.w3.org/2000/svg">
<rect width="70" height="70" fill="white"/>
<g clip-path="url(#clip0)">
<path opacity="0.15" d="M34.9997 31.5418C38.8196 31.5418 41.9163 28.4451 41.9163 24.6252C41.9163 20.8052 38.8196 17.7085 34.9997 17.7085C31.1797 17.7085 28.083 20.8052 28.083 24.6252C28.083 28.4451 31.1797 31.5418 34.9997 31.5418Z" fill="#4A3AFF"/>
<path opacity="0.15" d="M22.0309 34.9998C24.4184 34.9998 26.3538 33.0644 26.3538 30.6769C26.3538 28.2894 24.4184 26.354 22.0309 26.354C19.6434 26.354 17.708 28.2894 17.708 30.6769C17.708 33.0644 19.6434 34.9998 22.0309 34.9998Z" fill="#4A3AFF"/>
<path opacity="0.15" d="M47.9684 34.9998C50.3559 34.9998 52.2913 33.0644 52.2913 30.6769C52.2913 28.2894 50.3559 26.354 47.9684 26.354C45.5809 26.354 43.6455 28.2894 43.6455 30.6769C43.6455 33.0644 45.5809 34.9998 47.9684 34.9998Z" fill="#4A3AFF"/>
<path d="M40.1875 47.1042H29.8125C26.9473 47.1042 24.625 44.3946 24.625 41.0521C24.625 37.7096 26.9473 35 29.8125 35H40.1875C43.0527 35 45.375 37.7096 45.375 41.0521C45.375 44.3946 43.0527 47.1042 40.1875 47.1042Z" fill="#4A3AFF"/>
<path opacity="0.15" d="M51.5153 38.4585H18.3516C16.0864 38.4585 14.25 40.2949 14.25 42.5601V43.0045C14.25 45.268 16.0864 47.1043 18.3516 47.1043H51.5153C53.8531 47.1043 55.75 45.2074 55.75 42.8679V42.6932C55.75 40.3554 53.8531 38.4585 51.5153 38.4585Z" fill="#4A3AFF"/>
</g>
<defs>
<clipPath id="clip0">
<rect width="41.5" height="41.5" fill="white" transform="translate(14.25 14.25)"/>
</clipPath>
</defs>
</svg>
