<svg width="25" height="28" viewBox="0 0 25 28" fill="none" xmlns="http://www.w3.org/2000/svg">
<path opacity="0.35" d="M5.5 22.4002V3.20001C5.5 2.53761 6.06 2 6.75 2H19.25C21.3213 2 23 3.61162 23 5.60004V20.0002C23 21.9886 21.3213 23.6002 19.25 23.6002H6.75C6.06 23.6002 5.5 23.0626 5.5 22.4002Z" fill="#4A3AFF"/>
<path d="M16.1245 7.99902C15.642 7.99902 12.857 7.99902 12.3745 7.99902C11.3395 7.99902 10.4995 8.80543 10.4995 9.79904C10.4995 10.7927 11.3395 11.5991 12.3745 11.5991C12.857 11.5991 15.642 11.5991 16.1245 11.5991C17.1595 11.5991 17.9995 10.7927 17.9995 9.79904C17.9995 8.80543 17.1595 7.99902 16.1245 7.99902Z" fill="#4A3AFF"/>
<path d="M6.75001 23.5996C6.06 23.5996 5.5 23.062 5.5 22.3996V4.39941C4.11875 4.39941 3 5.47343 3 6.79944V22.3996C3 24.388 4.67875 25.9996 6.75001 25.9996H16.75C18.1313 25.9996 19.25 24.9256 19.25 23.5996H6.75001Z" fill="#4A3AFF"/>
</svg>
