<svg width="25" height="28" viewBox="0 0 25 28" fill="none" xmlns="http://www.w3.org/2000/svg">
<path opacity="0.35" d="M22.7965 9.77748C22.6245 9.05948 21.7175 8.81848 21.1955 9.34048C19.9405 10.5955 18.5425 11.9935 18.2675 12.2685C17.2315 13.3045 15.5105 13.2415 14.5585 12.0765C13.7305 11.0645 13.9075 9.55648 14.8325 8.63148L17.6585 5.80548C18.1805 5.28348 17.9405 4.37548 17.2225 4.20348C16.1765 3.95248 15.0455 3.92248 13.8735 4.17648C10.9625 4.80848 8.6425 7.19248 8.1215 10.1255C7.8875 11.4435 8.0005 12.7125 8.3805 13.8595L3.9885 18.2385C2.6705 19.5565 2.6705 21.6935 3.9885 23.0115C5.3065 24.3295 7.4435 24.3295 8.7615 23.0115L13.1595 18.6265C14.3015 19.0015 15.5635 19.1105 16.8735 18.8775C19.8075 18.3565 22.1915 16.0375 22.8225 13.1255C23.0775 11.9535 23.0465 10.8235 22.7965 9.77748Z" fill="#4A3AFF"/>
<path d="M6.49951 22C7.32794 22 7.99951 21.3284 7.99951 20.5C7.99951 19.6716 7.32794 19 6.49951 19C5.67108 19 4.99951 19.6716 4.99951 20.5C4.99951 21.3284 5.67108 22 6.49951 22Z" fill="#4A3AFF"/>
</svg>
