<svg width="25" height="28" viewBox="0 0 25 28" fill="none" xmlns="http://www.w3.org/2000/svg">
<path opacity="0.35" d="M3 21.5497V5.44994C3 3.54442 4.67875 2 6.75 2H15.5L23 8.89988V21.5497C23 23.4552 21.3212 24.9996 19.25 24.9996H6.75C4.67875 24.9996 3 23.4552 3 21.5497Z" fill="#4A3AFF"/>
<path d="M15.5 6.59992V2L23 8.89988H18C16.6188 8.89988 15.5 7.87065 15.5 6.59992Z" fill="#4A3AFF"/>
<path d="M16.75 14.6496H9.25C8.55875 14.6496 8 14.1344 8 13.4996C8 12.8648 8.55875 12.3496 9.25 12.3496H16.75C17.4412 12.3496 18 12.8648 18 13.4996C18 14.1344 17.4412 14.6496 16.75 14.6496Z" fill="#4A3AFF"/>
<path d="M14.25 19.2502H9.25C8.55875 19.2502 8 18.735 8 18.1002C8 17.4654 8.55875 16.9502 9.25 16.9502H14.25C14.9413 16.9502 15.5 17.4654 15.5 18.1002C15.5 18.735 14.9413 19.2502 14.25 19.2502Z" fill="#4A3AFF"/>
</svg>
