<svg width="70" height="70" viewBox="0 0 70 70" fill="none" xmlns="http://www.w3.org/2000/svg">
<rect width="70" height="70" fill="white"/>
<path d="M48.2539 21.6982H36.3091C36.4953 22.2203 36.615 22.774 36.615 23.3609C36.615 23.9479 36.4953 24.5015 36.3091 25.0236H48.2539C49.1717 25.0236 49.9166 24.2787 49.9166 23.3609C49.9166 22.4431 49.1717 21.6982 48.2539 21.6982Z" fill="#4A3AFF"/>
<path d="M21.651 25.0236H26.945C26.7588 24.5015 26.639 23.9479 26.639 23.3609C26.639 22.774 26.7588 22.2203 26.945 21.6982H21.651C20.7332 21.6982 19.9883 22.4431 19.9883 23.3609C19.9883 24.2787 20.7332 25.0236 21.651 25.0236Z" fill="#4A3AFF"/>
<path opacity="0.35" d="M31.6267 28.3492C34.3816 28.3492 36.6148 26.116 36.6148 23.3611C36.6148 20.6063 34.3816 18.373 31.6267 18.373C28.8719 18.373 26.6387 20.6063 26.6387 23.3611C26.6387 26.116 28.8719 28.3492 31.6267 28.3492Z" fill="#4A3AFF"/>
<path d="M48.2534 33.3374H44.6221C44.8083 33.8595 44.928 34.4132 44.928 35.0001C44.928 35.587 44.8083 36.1407 44.6221 36.6628H48.2534C49.1712 36.6628 49.9161 35.9179 49.9161 35.0001C49.9161 34.0823 49.1712 33.3374 48.2534 33.3374Z" fill="#4A3AFF"/>
<path d="M21.651 36.6628H35.2584C35.0722 36.1407 34.9525 35.587 34.9525 35.0001C34.9525 34.4132 35.0722 33.8595 35.2584 33.3374H21.651C20.7332 33.3374 19.9883 34.0823 19.9883 35.0001C19.9883 35.9179 20.7332 36.6628 21.651 36.6628Z" fill="#4A3AFF"/>
<path opacity="0.35" d="M39.9402 39.9879C42.6951 39.9879 44.9283 37.7546 44.9283 34.9998C44.9283 32.245 42.6951 30.0117 39.9402 30.0117C37.1854 30.0117 34.9521 32.245 34.9521 34.9998C34.9521 37.7546 37.1854 39.9879 39.9402 39.9879Z" fill="#4A3AFF"/>
<path d="M48.2539 44.9761H36.3091C36.4953 45.4982 36.615 46.0518 36.615 46.6388C36.615 47.2257 36.4953 47.7794 36.3091 48.3015H48.2539C49.1717 48.3015 49.9166 47.5566 49.9166 46.6388C49.9166 45.721 49.1717 44.9761 48.2539 44.9761Z" fill="#4A3AFF"/>
<path d="M21.651 48.3015H26.945C26.7588 47.7794 26.639 47.2257 26.639 46.6388C26.639 46.0518 26.7588 45.4982 26.945 44.9761H21.651C20.7332 44.9761 19.9883 45.721 19.9883 46.6388C19.9883 47.5566 20.7332 48.3015 21.651 48.3015Z" fill="#4A3AFF"/>
<path opacity="0.35" d="M31.6267 51.627C34.3816 51.627 36.6148 49.3938 36.6148 46.639C36.6148 43.8841 34.3816 41.6509 31.6267 41.6509C28.8719 41.6509 26.6387 43.8841 26.6387 46.639C26.6387 49.3938 28.8719 51.627 31.6267 51.627Z" fill="#4A3AFF"/>
</svg>
