<svg width="70" height="70" viewBox="0 0 70 70" fill="none" xmlns="http://www.w3.org/2000/svg">
<rect width="70" height="70" fill="white"/>
<g clip-path="url(#clip0)">
<path d="M49.1191 23.3726C48.4779 23.3726 21.5215 23.3726 20.8803 23.3726C19.5049 23.3726 18.3887 24.4888 18.3887 25.8642C18.3887 27.2396 19.5049 28.3559 20.8803 28.3559C21.5215 28.3559 48.4779 28.3559 49.1191 28.3559C50.4945 28.3559 51.6107 27.2396 51.6107 25.8642C51.6107 24.4888 50.4945 23.3726 49.1191 23.3726Z" fill="#4A3AFF"/>
<path opacity="0.15" d="M21.7109 28.356L27.7059 35.5502C29.1992 37.3409 30.0165 39.6 30.0165 41.9305V50.9071C30.0165 52.5317 31.1909 53.917 32.7922 54.1845L37.0811 54.8987C38.601 55.1529 39.9831 53.9818 39.9831 52.442V41.9322C39.9831 39.6 40.8003 37.3425 42.2937 35.5519L48.2886 28.356H21.7109Z" fill="#4A3AFF"/>
</g>
<defs>
<clipPath id="clip0">
<rect width="39.8665" height="39.8665" fill="white" transform="translate(15.0664 15.0669)"/>
</clipPath>
</defs>
</svg>
