<svg width="305" height="42" viewBox="0 0 305 42" fill="none" xmlns="http://www.w3.org/2000/svg">
<path d="M62.7057 33.7975V31.2671C64.1517 33.6891 66.899 34.2313 68.4534 34.2313C73.0805 34.2313 77.0207 30.2911 77.0207 24.5072C77.0207 18.9764 73.4781 14.747 68.2727 14.747C66.5014 14.747 64.477 15.3615 63.2118 17.2774V7.95099H56.9219V33.7975H62.7057ZM63.0672 24.435C63.0672 21.8322 64.7301 20.2417 66.9352 20.2417C68.9957 20.2417 70.6947 21.8322 70.6947 24.435C70.6947 27.0377 68.9957 28.7367 66.9352 28.7367C64.7301 28.7367 63.0672 27.0738 63.0672 24.435Z" fill="#0D0A2C"/>
<path d="M92.8379 14.8916C92.5487 14.7832 92.1511 14.747 91.6811 14.747C89.223 14.747 87.4156 16.0845 86.4395 18.3619V15.1808H80.1857V33.7975H86.4757V26.9654C86.4757 23.0613 88.247 20.6393 91.4281 20.6393C92.0788 20.6393 92.5487 20.7116 92.8379 20.8562V14.8916Z" fill="#0D0A2C"/>
<path d="M95.2596 33.7975H101.55V15.1808H95.2596V33.7975ZM95.0066 9.97534C95.0066 11.8551 96.4525 13.2288 98.3684 13.2288C100.284 13.2288 101.766 11.8551 101.766 9.97534C101.766 8.09559 100.284 6.72192 98.3684 6.72192C96.4525 6.72192 95.0066 8.09559 95.0066 9.97534Z" fill="#0D0A2C"/>
<path d="M110.182 24.5795L103.784 33.7975H110.76L113.797 28.8813L116.834 33.7975H123.81L117.412 24.5795L123.955 15.1808H116.797L113.797 20.3501L110.797 15.1808H103.639L110.182 24.5795Z" fill="#0D0A2C"/>
<path d="M131.203 18.8318H133.589V26.2785C133.589 30.6164 136.047 33.0023 140.096 33.0023C141.939 33.0023 143.349 32.6046 144.325 32.1347V26.8208C143.566 27.363 142.662 27.5076 141.903 27.5076C140.746 27.5076 139.879 26.8208 139.879 25.2302V18.8318H143.819V13.9517H139.879V8.92701H133.77V13.9517H131.203V18.8318Z" fill="#4A3AFF"/>
<path d="M163.662 24.7603C163.843 24.1819 164.024 23.0613 164.024 22.0853C164.024 16.9882 160.409 13.5179 155.095 13.5179C149.6 13.5179 145.407 17.7835 145.407 23.2782C145.407 28.7728 149.492 33.0023 155.854 33.0023C158.999 33.0023 161.457 32.207 163.915 30.0019L160.734 26.0255C159.831 26.8931 158.349 27.7607 156.324 27.7607C154.191 27.7607 152.167 26.8569 151.878 24.7603H163.662ZM154.95 18.5065C156.577 18.5065 157.842 19.5187 157.951 21.1092V21.1454H151.769C151.878 19.4464 153.324 18.5065 154.95 18.5065Z" fill="#4A3AFF"/>
<path d="M167.115 13.9517V32.5685H173.405V22.7721C173.405 20.4586 174.598 19.0126 176.37 19.0126C178.249 19.0126 179.262 20.1694 179.262 22.3383V32.5685H185.552V22.7721C185.552 20.4586 186.817 19.0126 188.516 19.0126C190.395 19.0126 191.408 20.1694 191.408 22.3383V32.5685H197.698V21.2177C197.698 16.4099 195.023 13.5179 190.504 13.5179C187.359 13.5179 185.66 14.9278 184.395 16.5545C183.13 14.5663 181.105 13.5179 178.358 13.5179C176.153 13.5179 174.381 14.2771 173.116 16.1568V13.9517H167.115Z" fill="#4A3AFF"/>
<path d="M201.958 39.7983H208.248V30.761C209.441 32.4962 211.538 33.0023 213.309 33.0023C218.515 33.0023 222.057 28.7728 222.057 23.242C222.057 17.4582 218.009 13.5179 213.381 13.5179C211.863 13.5179 209.297 14.0602 207.742 16.4822V13.9517H201.958V39.7983ZM208.104 23.3143C208.104 20.6755 209.767 19.0126 211.972 19.0126C214.032 19.0126 215.731 20.7116 215.731 23.3143C215.731 25.9171 214.032 27.5076 211.972 27.5076C209.767 27.5076 208.104 25.9171 208.104 23.3143Z" fill="#4A3AFF"/>
<path d="M225.005 27.0015C225.005 30.9056 227.247 33.0023 231.151 33.0023C232.416 33.0023 233.392 32.7854 234.079 32.46V27.3992C233.609 27.5799 233.175 27.6161 232.85 27.6161C231.404 27.6161 231.295 26.7123 231.295 25.8448V6.72192H225.005V27.0015Z" fill="#4A3AFF"/>
<path d="M241.855 33.0023C244.313 33.0023 245.94 31.9178 246.663 30.508V32.5685H252.483V20.9285C252.483 16.3014 249.302 13.5179 243.916 13.5179C240.265 13.5179 237.264 15.1085 235.674 17.1328L238.963 21.0731C239.939 19.9525 241.458 18.868 243.59 18.868C245.145 18.868 246.482 19.4102 246.482 20.9646V21.0008L241.675 21.9407C237.77 22.7721 235.602 24.6518 235.602 27.3992C235.602 30.6887 238.24 33.0023 241.855 33.0023ZM246.482 24.7964V25.0856C246.482 27.1461 245.326 28.4836 243.337 28.4836C242.217 28.4836 241.602 27.9053 241.602 27.0015C241.602 26.0978 242.325 25.6279 243.446 25.3748L246.482 24.7964Z" fill="#4A3AFF"/>
<path d="M254.724 18.8318H257.11V26.2785C257.11 30.6164 259.568 33.0023 263.617 33.0023C265.46 33.0023 266.87 32.6046 267.846 32.1347V26.8208C267.087 27.363 266.183 27.5076 265.424 27.5076C264.267 27.5076 263.4 26.8208 263.4 25.2302V18.8318H267.34V13.9517H263.4V8.92701H257.291V13.9517H254.724V18.8318Z" fill="#4A3AFF"/>
<path d="M287.183 24.7603C287.364 24.1819 287.545 23.0613 287.545 22.0853C287.545 16.9882 283.93 13.5179 278.616 13.5179C273.121 13.5179 268.928 17.7835 268.928 23.2782C268.928 28.7728 273.013 33.0023 279.375 33.0023C282.52 33.0023 284.978 32.207 287.436 30.0019L284.255 26.0255C283.352 26.8931 281.869 27.7607 279.845 27.7607C277.712 27.7607 275.688 26.8569 275.399 24.7603H287.183ZM278.471 18.5065C280.098 18.5065 281.363 19.5187 281.472 21.1092V21.1454H275.29C275.399 19.4464 276.845 18.5065 278.471 18.5065Z" fill="#4A3AFF"/>
<path d="M297.071 33.0023C301.698 33.0023 304.807 30.4357 304.807 27.11C304.807 23.4228 301.951 22.4468 299.023 21.29C296.384 20.1694 295.264 19.9886 295.264 19.3018C295.264 18.615 296.095 18.2173 297.071 18.2173C298.806 18.2173 299.782 19.0487 300.397 20.0971L304.301 17.2774C303.144 15.0723 300.433 13.5179 297.252 13.5179C293.058 13.5179 289.552 15.5423 289.552 19.2656C289.552 22.266 291.612 23.7481 295.264 25.0495C297.83 25.9532 299.095 26.2786 299.095 27.2546C299.095 27.9414 298.408 28.3029 297.143 28.3029C295.264 28.3029 293.818 27.1461 292.95 25.664L288.937 28.7367C290.492 31.484 293.601 33.0023 297.071 33.0023Z" fill="#4A3AFF"/>
<path fill-rule="evenodd" clip-rule="evenodd" d="M34.8988 12.4115C38.1404 12.4115 40.7683 9.78362 40.7683 6.54198C40.7683 3.30035 38.1404 0.672485 34.8988 0.672485C31.6572 0.672485 29.0293 3.30035 29.0293 6.54198C29.0293 9.78362 31.6572 12.4115 34.8988 12.4115Z" fill="#8055FA"/>
<path fill-rule="evenodd" clip-rule="evenodd" d="M34.8988 26.4943C38.1404 26.4943 40.7683 23.8667 40.7683 20.6255C40.7683 17.3843 38.1404 14.7568 34.8988 14.7568C31.6572 14.7568 29.0293 17.3843 29.0293 20.6255C29.0293 23.8667 31.6572 26.4943 34.8988 26.4943Z" fill="#7550FB"/>
<path fill-rule="evenodd" clip-rule="evenodd" d="M34.8988 41.1024C38.1404 41.1024 40.7683 38.4745 40.7683 35.2329C40.7683 31.9913 38.1404 29.3634 34.8988 29.3634C31.6572 29.3634 29.0293 31.9913 29.0293 35.2329C29.0293 38.4745 31.6572 41.1024 34.8988 41.1024Z" fill="#6A4AFC"/>
<path fill-rule="evenodd" clip-rule="evenodd" d="M20.2906 26.494C23.5318 26.494 26.1593 23.8665 26.1593 20.6253C26.1593 17.3841 23.5318 14.7566 20.2906 14.7566C17.0494 14.7566 14.4219 17.3841 14.4219 20.6253C14.4219 23.8665 17.0494 26.494 20.2906 26.494Z" fill="#6045FD"/>
<path fill-rule="evenodd" clip-rule="evenodd" d="M20.2906 41.1023C23.5318 41.1023 26.1593 38.4744 26.1593 35.2328C26.1593 31.9911 23.5318 29.3633 20.2906 29.3633C17.0494 29.3633 14.4219 31.9911 14.4219 35.2328C14.4219 38.4744 17.0494 41.1023 20.2906 41.1023Z" fill="#553FFE"/>
<path fill-rule="evenodd" clip-rule="evenodd" d="M6.20739 41.1024C9.44902 41.1024 12.0769 38.4745 12.0769 35.2329C12.0769 31.9913 9.44902 29.3634 6.20739 29.3634C2.96575 29.3634 0.337891 31.9913 0.337891 35.2329C0.337891 38.4745 2.96575 41.1024 6.20739 41.1024Z" fill="#4A3AFF"/>
</svg>
